<svg width="190" height="25" viewBox="0 0 190 25" fill="none" xmlns="http://www.w3.org/2000/svg">
<path d="M11.8054 24L11.0914 20.226H5.71938L5.00538 24H0.381382L4.97138 0.199998H12.0094L16.3614 24H11.8054ZM8.33738 4.62L7.01138 12.542L6.26338 16.588H10.5134L9.73138 12.542L8.40538 4.62H8.33738ZM18.3414 24V0.199998H22.9994V10.23H23.1694L27.4194 0.199998H32.2134L27.2494 11.556L32.4514 24H27.2834L23.2374 13.596H22.9994V24H18.3414ZM36.2556 0.199998H44.4156V4.28H37.8876L37.7856 4.484L43.2256 14.412C44.3363 16.4067 44.8916 17.9253 44.8916 18.968C44.8916 21.2573 44.1323 22.9347 42.6136 24H33.6036V20.056H40.6416L40.7436 19.852L34.6236 8.87C33.7396 7.28333 33.2976 5.99133 33.2976 4.994C33.2976 2.63667 34.2836 1.03867 36.2556 0.199998ZM48.9953 24V2.648H55.8633C58.2093 2.648 59.9999 3.243 61.2353 4.433C62.4819 5.61167 63.1053 7.21533 63.1053 9.244C63.1053 11.25 62.4819 12.8423 61.2353 14.021C59.9999 15.1883 58.2093 15.772 55.8633 15.772H51.6813V24H48.9953ZM51.6813 13.46H55.8633C57.3479 13.46 58.4699 13.0803 59.2293 12.321C59.9999 11.5617 60.3853 10.536 60.3853 9.244C60.3853 7.92933 59.9999 6.881 59.2293 6.099C58.4699 5.317 57.3479 4.926 55.8633 4.926H51.6813V13.46ZM67.8894 24V2.648H75.3354C77.7721 2.648 79.6138 3.23167 80.8604 4.399C82.1184 5.555 82.7474 7.07933 82.7474 8.972C82.7474 10.842 82.1184 12.3607 80.8604 13.528C79.6138 14.684 77.7721 15.262 75.3354 15.262H70.5414V24H67.8894ZM79.8574 24L73.7374 14.31H76.6274L83.2914 24H79.8574ZM70.5414 13.392H75.1314C76.7294 13.392 77.9421 13.001 78.7694 12.219C79.6081 11.4257 80.0274 10.4 80.0274 9.142C80.0274 7.85 79.6251 6.82433 78.8204 6.065C78.0271 5.30567 76.8654 4.926 75.3354 4.926H70.5414V13.392ZM96.2558 24.408C94.4878 24.408 92.9068 24 91.5128 23.184C90.1188 22.368 89.0195 21.144 88.2148 19.512C87.4101 17.8687 87.0078 15.8173 87.0078 13.358C87.0078 10.8647 87.4101 8.802 88.2148 7.17C89.0195 5.52667 90.1188 4.30266 91.5128 3.498C92.9068 2.682 94.4878 2.274 96.2558 2.274C98.0238 2.274 99.6048 2.682 100.999 3.498C102.393 4.314 103.492 5.54367 104.297 7.187C105.101 8.83033 105.504 10.8873 105.504 13.358C105.504 15.84 105.101 17.9027 104.297 19.546C103.492 21.178 102.393 22.3963 100.999 23.201C99.6048 24.0057 98.0238 24.408 96.2558 24.408ZM96.2558 21.96C98.2618 21.96 99.8428 21.229 100.999 19.767C102.166 18.305 102.75 16.1573 102.75 13.324C102.75 10.5473 102.166 8.411 100.999 6.915C99.8428 5.40767 98.2618 4.654 96.2558 4.654C94.2725 4.654 92.6915 5.40767 91.5128 6.915C90.3455 8.42233 89.7618 10.57 89.7618 13.358C89.7618 16.18 90.3455 18.322 91.5128 19.784C92.6915 21.2347 94.2725 21.96 96.2558 21.96ZM110.655 2.648H116.911C119.064 2.648 120.934 3.09 122.521 3.974C124.108 4.84667 125.337 6.082 126.21 7.68C127.083 9.278 127.519 11.1593 127.519 13.324C127.519 15.466 127.083 17.336 126.21 18.934C125.337 20.532 124.108 21.7787 122.521 22.674C120.934 23.558 119.064 24 116.911 24H110.655V2.648ZM113.307 4.994V21.688H116.911C118.52 21.688 119.903 21.3253 121.059 20.6C122.226 19.8747 123.122 18.883 123.745 17.625C124.38 16.3557 124.697 14.922 124.697 13.324C124.697 11.7147 124.38 10.2867 123.745 9.04C123.122 7.782 122.226 6.796 121.059 6.082C119.903 5.35667 118.52 4.994 116.911 4.994H113.307ZM132.624 2.648H135.276V16.282C135.276 18.288 135.781 19.7387 136.789 20.634C137.798 21.518 139.118 21.96 140.75 21.96C142.371 21.96 143.68 21.518 144.677 20.634C145.686 19.7387 146.19 18.288 146.19 16.282V2.648H148.842V16.282C148.842 18.0727 148.508 19.5743 147.839 20.787C147.182 21.9883 146.247 22.895 145.034 23.507C143.822 24.1077 142.394 24.408 140.75 24.408C139.107 24.408 137.673 24.1077 136.449 23.507C135.237 22.895 134.296 21.9883 133.627 20.787C132.959 19.5743 132.624 18.0727 132.624 16.282V2.648ZM162.725 24.408C160.844 24.408 159.223 23.9377 157.863 22.997C156.503 22.045 155.455 20.7303 154.718 19.053C153.982 17.3643 153.613 15.4093 153.613 13.188C153.613 10.8193 154.01 8.82467 154.803 7.204C155.608 5.58333 156.696 4.35933 158.067 3.532C159.45 2.69333 161.003 2.274 162.725 2.274C165.003 2.274 166.834 2.84633 168.216 3.991C169.61 5.12433 170.568 6.60333 171.089 8.428L168.233 9.006C167.791 7.68 167.083 6.626 166.108 5.844C165.145 5.05067 164.017 4.654 162.725 4.654C161.603 4.654 160.566 4.977 159.614 5.623C158.674 6.25767 157.914 7.20967 157.336 8.479C156.758 9.74833 156.469 11.318 156.469 13.188C156.469 14.888 156.696 16.401 157.149 17.727C157.614 19.053 158.305 20.0957 159.223 20.855C160.153 21.6143 161.32 21.994 162.725 21.994C164.414 21.994 165.751 21.5407 166.737 20.634C167.735 19.7273 168.233 18.5373 168.233 17.064H171.123C171.123 18.594 170.772 19.9087 170.069 21.008C169.367 22.096 168.381 22.9347 167.111 23.524C165.853 24.1133 164.391 24.408 162.725 24.408ZM172.935 4.926V2.648H189.561V4.926H181.962L182.557 4.314V24H179.905V4.314L180.5 4.926H172.935Z" fill="#D1D7E2"/>
</svg>
