<svg width="25" height="21" viewBox="0 0 25 21" fill="none" xmlns="http://www.w3.org/2000/svg">
<path d="M24.5362 3.29574C23.6354 3.68884 22.6676 3.95445 21.6502 4.07451C22.7 3.45594 23.4853 2.48239 23.8598 1.33552C22.8735 1.91241 21.7941 2.31849 20.6684 2.53608C19.9115 1.74017 18.9089 1.21262 17.8162 1.03535C16.7236 0.858074 15.6021 1.041 14.6259 1.55571C13.6497 2.07043 12.8733 2.88814 12.4173 3.88189C11.9614 4.87565 11.8513 5.98984 12.1043 7.0515C10.1059 6.95268 8.15088 6.44117 6.36619 5.55015C4.5815 4.65914 3.00701 3.40853 1.74489 1.87949C1.31334 2.61258 1.0652 3.46254 1.0652 4.36775C1.06472 5.18264 1.26849 5.98505 1.65845 6.70379C2.04841 7.42253 2.61249 8.03536 3.30064 8.48793C2.50256 8.46292 1.7221 8.25056 1.0242 7.86852V7.93227C1.02412 9.07519 1.42558 10.1829 2.16046 11.0676C2.89534 11.9522 3.91837 12.5592 5.05597 12.7855C4.31563 12.9828 3.53943 13.0119 2.78601 12.8705C3.10698 13.8539 3.73218 14.7139 4.57411 15.33C5.41604 15.9461 6.43253 16.2876 7.48129 16.3065C5.70096 17.6828 3.50227 18.4294 1.2389 18.4261C0.837966 18.4262 0.437373 18.4031 0.0391846 18.357C2.33663 19.8117 5.01103 20.5837 7.74238 20.5807C16.9884 20.5807 22.0429 13.0395 22.0429 6.49902C22.0429 6.28653 22.0375 6.07192 22.0278 5.85943C23.011 5.15924 23.8597 4.2922 24.5341 3.29892L24.5362 3.29574V3.29574Z" fill="#C6D5E9"/>
</svg>
