<svg width="150" height="40" viewBox="0 0 150 40" fill="none" xmlns="http://www.w3.org/2000/svg">
<path d="M74.2982 33V29.6133C73.5013 30.875 72.5717 31.8268 71.5092 32.4688C70.4577 33.0996 69.279 33.415 67.973 33.415C65.9366 33.415 64.3151 32.6126 63.1088 31.0078C61.9024 29.3919 61.2992 27.2282 61.2992 24.5166C61.2992 21.5062 61.9909 19.099 63.3744 17.2949C64.7579 15.4798 66.5951 14.5723 68.8861 14.5723C69.9375 14.5723 70.917 14.777 71.8246 15.1865C72.7432 15.596 73.5899 16.2103 74.3646 17.0293L74.2982 14.9707V8.42969H71.8412V6.78613H77.5853V31.3564H80.0424V33H74.2982ZM74.2982 18.8721C73.5124 18.1859 72.6989 17.6712 71.8578 17.3281C71.0166 16.985 70.1534 16.8135 69.2679 16.8135C67.8623 16.8135 66.7611 17.4388 65.9642 18.6895C65.1784 19.929 64.7855 21.6501 64.7855 23.8525C64.7855 26.221 65.1397 27.9974 65.848 29.1816C66.5674 30.3659 67.6355 30.958 69.0521 30.958C70.0261 30.958 70.9502 30.709 71.8246 30.2109C72.6989 29.7129 73.5235 28.9714 74.2982 27.9863V18.8721ZM94.0043 20.2832C96.0297 20.5931 97.6234 21.3346 98.7855 22.5078C99.9587 23.6699 100.545 25.1032 100.545 26.8076C100.545 28.6227 99.8923 30.1224 98.5863 31.3066C97.8558 31.9707 97.0424 32.4189 96.1459 32.6514C95.2494 32.8838 93.8936 33 92.0785 33H83.3295V31.3564H85.7865V10.0566H83.3295V8.42969H92.6097C94.8565 8.42969 96.5664 8.89453 97.7396 9.82422C98.9239 10.7539 99.516 12.1042 99.516 13.875C99.516 15.3249 99.0567 16.5866 98.1381 17.6602C97.2194 18.7227 95.8415 19.597 94.0043 20.2832ZM89.2728 31.3564H89.8041C92.2279 31.3564 93.8493 31.124 94.6683 30.6592C96.1735 29.7848 96.9261 28.4346 96.9261 26.6084C96.9261 25.0368 96.2566 23.7308 94.9174 22.6904C93.5892 21.639 91.918 21.1133 89.9037 21.1133H89.2728V31.3564ZM89.2728 19.4863H90.0531C92.0453 19.4863 93.5394 19.0602 94.5355 18.208C95.5316 17.3558 96.0297 16.083 96.0297 14.3896C96.0297 12.8402 95.5593 11.7334 94.6185 11.0693C93.6778 10.3942 92.1062 10.0566 89.9037 10.0566H89.2728V19.4863ZM116.084 33.6143C112.565 33.6143 109.787 32.4632 107.75 30.1611C105.725 27.859 104.712 24.7103 104.712 20.7148C104.712 16.7194 105.725 13.5706 107.75 11.2686C109.776 8.96647 112.554 7.81543 116.084 7.81543C119.604 7.81543 122.376 8.96647 124.402 11.2686C126.427 13.5706 127.44 16.7194 127.44 20.7148C127.44 24.7103 126.427 27.859 124.402 30.1611C122.376 32.4632 119.604 33.6143 116.084 33.6143ZM116.084 31.9707C118.42 31.9707 120.279 30.9525 121.662 28.916C123.057 26.8685 123.754 24.1348 123.754 20.7148C123.754 17.2949 123.057 14.5612 121.662 12.5137C120.279 10.4661 118.42 9.44238 116.084 9.44238C113.749 9.44238 111.884 10.4661 110.49 12.5137C109.095 14.5501 108.398 17.2839 108.398 20.7148C108.398 24.1348 109.095 26.8685 110.49 28.916C111.884 30.9525 113.749 31.9707 116.084 31.9707ZM131.64 32.502V27.7871H133.483L133.682 30.2441C134.601 30.8197 135.442 31.2568 136.205 31.5557C136.98 31.8434 137.677 31.9873 138.297 31.9873C139.681 31.9873 140.821 31.5667 141.717 30.7256C142.625 29.8734 143.078 28.7943 143.078 27.4883C143.078 26.3926 142.796 25.4629 142.232 24.6992C141.656 23.9355 140.644 23.1442 139.194 22.3252L137.467 21.3291C135.409 20.167 133.953 19.0602 133.101 18.0088C132.249 16.9463 131.823 15.7344 131.823 14.373C131.823 12.4915 132.498 10.931 133.848 9.69141C135.198 8.44076 136.892 7.81543 138.928 7.81543C140.046 7.81543 141.142 7.89844 142.215 8.06445C143.289 8.23047 144.34 8.48503 145.37 8.82812V13.1445H143.527L143.311 10.7871C142.592 10.3333 141.878 9.99577 141.169 9.77441C140.472 9.55306 139.786 9.44238 139.111 9.44238C138.07 9.44238 137.179 9.85189 136.438 10.6709C135.696 11.4788 135.326 12.4583 135.326 13.6094C135.326 15.3138 136.438 16.7969 138.662 18.0586L140.406 19.0547C142.818 20.4271 144.445 21.6224 145.286 22.6406C146.128 23.6589 146.548 24.9372 146.548 26.4756C146.548 28.5231 145.785 30.2275 144.257 31.5889C142.741 32.9391 140.843 33.6143 138.563 33.6143C137.235 33.6143 135.99 33.5202 134.828 33.332C133.676 33.1439 132.614 32.8672 131.64 32.502Z" fill="#D1D7E2"/>
<path d="M16.0414 9.5V6H38.7914L54.5414 34H38.7914L27.4164 9.5H16.0414Z" fill="#D1D7E3" stroke="#D1D7E3" stroke-width="1.75"/>
<path d="M9.04138 20H29.1664L23.9164 34H2.04138L9.04138 20Z" fill="#D9D9D9" stroke="#D1D7E3" stroke-width="1.75"/>
</svg>
