<svg width="25" height="36" viewBox="0 0 25 36" fill="none" xmlns="http://www.w3.org/2000/svg">
<path d="M6.07699 31.0878V34.4669C6.07699 34.84 6.37976 35.1427 6.75281 35.1427H9.4561C9.63534 35.1427 9.80724 35.0715 9.93398 34.9448C10.0607 34.818 10.1319 34.6461 10.1319 34.4669V31.0878H11.4836V34.4669C11.4836 34.84 11.7863 35.1427 12.1594 35.1427H14.8627C15.0419 35.1427 15.2138 35.0715 15.3406 34.9448C15.4673 34.818 15.5385 34.6461 15.5385 34.4669V31.0878H15.7656C21.1505 31.0878 25 28.2953 25 23.4645C25 19.4042 22.2778 17.1848 19.0906 16.8685V16.6306C21.7128 15.9764 23.6402 13.9976 23.6402 10.7104C23.6402 6.56899 20.5315 4.05493 15.7872 4.05493H15.5385V0.675822C15.5385 0.496583 15.4673 0.324685 15.3406 0.197944C15.2138 0.0712026 15.0419 0 14.8627 0H12.1594C11.9801 0 11.8082 0.0712026 11.6815 0.197944C11.5548 0.324685 11.4836 0.496583 11.4836 0.675822V4.05493H9.93458V0.675822C9.93458 0.496583 9.86338 0.324685 9.73664 0.197944C9.6099 0.0712026 9.438 0 9.25876 0H6.75281C6.57357 0 6.40167 0.0712026 6.27493 0.197944C6.14819 0.324685 6.07699 0.496583 6.07699 0.675822V4.05493L0.675822 4.08467C0.496583 4.08467 0.324684 4.15587 0.197943 4.28261C0.0712019 4.40935 0 4.58125 0 4.76049V7.43404C0 7.80439 0.297361 8.10986 0.670415 8.10986L2.7114 8.09634C3.24677 8.09991 3.759 8.31509 4.1363 8.69493C4.51361 9.07477 4.72536 9.58843 4.72535 10.1238V25.0054C4.72535 25.5431 4.51174 26.0588 4.13152 26.439C3.75129 26.8193 3.2356 27.0329 2.69788 27.0329L0.675822 27.0626C0.496583 27.0626 0.324684 27.1338 0.197943 27.2605C0.0712019 27.3873 0 27.5592 0 27.7384V30.4417C0 30.8148 0.302768 31.1175 0.675822 31.1175L6.07699 31.0878ZM9.93458 8.07472H14.5815C17.0307 8.07472 18.4689 9.42095 18.4689 11.6214C18.4689 13.976 16.9145 15.3033 13.3948 15.3033H9.93458V8.07472ZM9.93458 19.0257H14.9086C17.9823 19.0257 19.6556 20.5936 19.6556 23.1455C19.6556 25.7218 17.9633 27.0653 13.8219 27.0653H9.93458V19.0284V19.0257Z" fill="#60AEF0"/>
</svg>
