<svg width="151" height="28" viewBox="0 0 151 28" fill="none" xmlns="http://www.w3.org/2000/svg">
<path d="M13.1664 3.84326C15.2969 3.84326 17.1141 4.21354 18.618 4.9541V10.1836L18.5839 10.2178C17.9458 9.23796 16.6014 8.58854 14.5507 8.26953C13.9468 8.16699 13.1835 8.11572 12.2606 8.11572C11.3378 8.11572 10.432 8.29232 9.54333 8.64551C8.65466 8.9873 7.9255 9.47721 7.35583 10.1152C6.25069 11.3571 5.69812 13.1287 5.69812 15.4302C5.69812 18.1076 6.3988 20.1014 7.80017 21.4116C8.96228 22.5054 10.5004 23.0522 12.4144 23.0522C14.5791 23.0522 16.3337 22.5908 17.6781 21.668C18.168 21.3376 18.5839 20.9274 18.9257 20.4375L18.9769 20.4717V25.2568C17.2338 26.7038 14.8868 27.4272 11.9359 27.4272C8.46098 27.4272 5.738 26.3221 3.76697 24.1118C1.87569 22.0041 0.930054 19.2127 0.930054 15.7378C0.930054 12.0578 1.96684 9.1582 4.04041 7.03906C6.13676 4.90853 9.17875 3.84326 13.1664 3.84326ZM21.5575 18.1646C21.5575 16.9113 21.7683 15.715 22.1898 14.5757C22.6228 13.425 23.238 12.4224 24.0355 11.5679C25.7787 9.72217 28.0402 8.79932 30.8202 8.79932C33.5887 8.79932 35.7876 9.6709 37.4169 11.4141C38.9777 13.0775 39.7582 15.2365 39.7582 17.8911C39.7582 20.5457 38.955 22.7446 37.3485 24.4878C35.6509 26.3335 33.4008 27.2563 30.598 27.2563C27.7041 27.2563 25.4369 26.3506 23.7963 24.5391C22.3038 22.887 21.5575 20.7622 21.5575 18.1646ZM25.7103 18.062C25.7103 18.7798 25.83 19.4748 26.0692 20.147C26.3085 20.8192 26.6503 21.3945 27.0946 21.873C28.0402 22.9098 29.2821 23.4282 30.8202 23.4282C32.2443 23.4282 33.3666 22.9212 34.1869 21.9072C34.9844 20.9274 35.3832 19.6514 35.3832 18.0791C35.3832 16.484 34.973 15.1966 34.1527 14.2168C33.2754 13.1686 32.0734 12.6445 30.5468 12.6445C28.9973 12.6445 27.7839 13.2028 26.9066 14.3193C26.1091 15.3447 25.7103 16.5923 25.7103 18.062ZM42.7831 4.04834C43.6945 2.62419 44.6459 1.37093 45.6371 0.288574L49.3114 3.17676C48.8215 3.7806 48.3658 4.37305 47.9442 4.9541C47.9442 4.9541 47.5056 5.57503 46.6283 6.81689L42.7831 4.04834ZM47.2777 25.0859C47.2777 26.0658 47.3005 26.7038 47.3461 27H43.0052V9.14111H47.2777V25.0859ZM56.6088 24.8125C56.6088 25.8151 56.6543 26.5443 56.7455 27H52.4559V9.14111H56.6088V10.6621C58.1127 9.42025 59.7191 8.79932 61.4281 8.79932C63.2966 8.79932 64.7891 9.43734 65.9056 10.7134C67.0222 11.978 67.5804 13.6471 67.5804 15.7207V22.5225C67.5804 24.4479 67.6089 25.6043 67.6659 25.9917C67.7229 26.3791 67.7969 26.6297 67.8881 26.7437C67.9906 26.8576 68.076 26.9601 68.1444 27.0513L68.1102 27.1196C67.1874 27.0399 66.5152 27 66.0936 27H64.8973C64.5328 27 64.0428 27.0171 63.4276 27.0513V17.7373C63.4276 14.3991 62.4136 12.73 60.3856 12.73C58.8817 12.73 57.6228 13.5047 56.6088 15.0542V24.8125ZM87.3705 25.3423C86.5388 26.0031 85.4564 26.5158 84.1234 26.8804C82.7904 27.245 81.1498 27.4272 79.2015 27.4272C77.2647 27.4272 75.2025 27.2507 73.015 26.8975V4.37305C75.2253 4.01986 77.1394 3.84326 78.7572 3.84326C80.3864 3.84326 81.7194 3.99707 82.7562 4.30469C83.8044 4.6123 84.6589 5.02816 85.3197 5.55225C86.6185 6.56624 87.2679 7.88216 87.2679 9.5C87.2679 11.1064 86.6812 12.4395 85.5077 13.499C86.8977 13.932 87.9743 14.7523 88.7377 15.96C89.4327 17.0423 89.7802 18.2443 89.7802 19.5659C89.7802 20.8761 89.5865 21.9984 89.1991 22.9326C88.8231 23.8669 88.2136 24.6701 87.3705 25.3423ZM77.5438 12.8667C78.0223 12.9465 78.6205 12.9863 79.3383 12.9863C80.056 12.9863 80.6428 12.8952 81.0985 12.7129C81.5656 12.5192 81.9245 12.2799 82.1752 11.9951C82.5853 11.528 82.7904 10.8786 82.7904 10.0469C82.7904 8.30371 81.765 7.43213 79.7142 7.43213C78.8483 7.43213 78.1249 7.46631 77.5438 7.53467V12.8667ZM80.0731 16.5239C79.1161 16.5239 78.273 16.5866 77.5438 16.7119V23.4282C78.3413 23.6333 79.1788 23.7358 80.056 23.7358C80.9333 23.7358 81.7024 23.6333 82.3632 23.4282C83.0354 23.2118 83.5993 22.9212 84.0551 22.5566C84.9779 21.8047 85.4393 20.8477 85.4393 19.6855C85.4393 17.5778 83.6506 16.5239 80.0731 16.5239ZM104.853 25.9404C103.236 26.8177 101.772 27.2563 100.461 27.2563C99.1511 27.2563 98.0288 27.1367 97.0946 26.8975C96.1604 26.6468 95.3685 26.2822 94.7191 25.8037C93.3975 24.8353 92.7367 23.4339 92.7367 21.5996C92.7367 19.959 93.5456 18.5918 95.1635 17.498C96.918 16.3132 99.2992 15.7207 102.307 15.7207L102.991 15.7378C103.127 15.7492 103.281 15.7606 103.452 15.772C103.623 15.772 103.777 15.7834 103.913 15.8062C103.822 13.9832 103.036 12.918 101.555 12.6104C101.065 12.5078 100.541 12.4565 99.9828 12.4565C99.4359 12.4565 98.8947 12.5078 98.3593 12.6104C97.8352 12.7015 97.3225 12.8268 96.8212 12.9863C95.716 13.3395 94.9242 13.744 94.4457 14.1997L94.3944 14.1655L93.8817 10.3887C95.8983 9.3291 98.1029 8.79932 100.495 8.79932C104.21 8.79932 106.585 10.138 107.622 12.8154C107.952 13.6699 108.118 14.6326 108.118 15.7036V21.8901C108.118 23.2118 108.585 24.1118 109.519 24.5903L106.426 27.4272C105.776 27.0854 105.252 26.5898 104.853 25.9404ZM103.931 18.8823C103.623 18.8254 103.304 18.7969 102.974 18.7969H102.29C99.772 18.7969 98.1713 19.3551 97.4877 20.4717C97.2826 20.8021 97.1801 21.1496 97.1801 21.5142C97.1801 21.8787 97.2427 22.2035 97.368 22.4883C97.5048 22.7617 97.7269 22.9896 98.0345 23.1719C98.627 23.5137 99.5043 23.6846 100.666 23.6846C101.84 23.6846 102.934 23.4054 103.948 22.8472C103.936 22.7218 103.931 22.5908 103.931 22.4541V18.8823ZM125.72 26.043C124.273 26.8519 122.826 27.2563 121.379 27.2563C119.932 27.2563 118.668 27.0285 117.585 26.5728C116.503 26.117 115.58 25.4904 114.817 24.6929C113.245 23.0522 112.458 20.9217 112.458 18.3013C112.458 15.5897 113.37 13.3338 115.193 11.5337C117.027 9.71077 119.374 8.79932 122.234 8.79932C123.111 8.79932 123.971 8.91325 124.814 9.14111V1.53613H129.001V19.8052C129.001 21.3205 129.07 22.3117 129.206 22.7788C129.355 23.2459 129.514 23.5877 129.685 23.8042C129.867 24.0207 130.095 24.2257 130.369 24.4194L127.156 27.2563C126.563 26.9373 126.085 26.5329 125.72 26.043ZM122.182 23.3257C123.14 23.3257 124.017 23.1434 124.814 22.7788V13.311C124.017 12.9806 123.151 12.8154 122.217 12.8154C121.282 12.8154 120.479 12.9408 119.807 13.1914C119.146 13.4421 118.577 13.7896 118.098 14.2339C117.095 15.1681 116.594 16.3815 116.594 17.874C116.594 19.5033 117.05 20.8021 117.961 21.7705C118.941 22.8073 120.348 23.3257 122.182 23.3257ZM133.086 18.2158C133.086 16.8828 133.314 15.6466 133.769 14.5073C134.225 13.368 134.869 12.3711 135.701 11.5166C137.478 9.70508 139.802 8.79932 142.673 8.79932C145.1 8.79932 147.048 9.60254 148.518 11.209C149.965 12.7585 150.688 14.7067 150.688 17.0537C150.688 17.9538 150.62 18.569 150.483 18.8994C149.344 19.2184 147.025 19.3779 143.528 19.3779H137.512C137.808 20.597 138.498 21.5483 139.58 22.2319C140.662 22.9041 142.069 23.2402 143.801 23.2402C145.613 23.2402 147.168 22.9155 148.467 22.2661C148.808 22.0952 149.065 21.9357 149.236 21.7876C149.213 22.2661 149.184 22.756 149.15 23.2573L148.962 25.9233C148.096 26.5158 146.695 26.9259 144.758 27.1538C144.189 27.2222 143.642 27.2563 143.118 27.2563C140.224 27.2563 137.831 26.4132 135.94 24.7271C134.037 23.0295 133.086 20.859 133.086 18.2158ZM146.142 16.0625C145.675 13.613 144.342 12.3882 142.143 12.3882C140.412 12.3882 139.096 13.1344 138.196 14.627C137.922 15.0827 137.711 15.584 137.563 16.1309C137.837 16.1423 138.173 16.1536 138.572 16.165H139.836C140.258 16.1764 140.662 16.1821 141.05 16.1821H142.024C142.605 16.1821 143.175 16.1764 143.733 16.165L145.134 16.1138C145.51 16.1024 145.846 16.0853 146.142 16.0625Z" fill="#D9D9D9"/>
</svg>
