<svg width="25" height="24" viewBox="0 0 25 24" fill="none" xmlns="http://www.w3.org/2000/svg">
<path fill-rule="evenodd" clip-rule="evenodd" d="M0.303833 1.95279C0.303833 1.43488 0.512754 0.938177 0.884635 0.571959C1.25652 0.205742 1.76089 2.60333e-06 2.28681 2.60333e-06H22.054C22.3147 -0.000416588 22.5728 0.0497921 22.8137 0.147754C23.0546 0.245716 23.2735 0.389507 23.4579 0.570895C23.6423 0.752284 23.7886 0.967707 23.8883 1.20483C23.9881 1.44196 24.0393 1.69612 24.0392 1.95279V21.419C24.0395 21.6757 23.9883 21.9299 23.8887 22.1672C23.7892 22.4044 23.643 22.62 23.4588 22.8016C23.2745 22.9831 23.0557 23.1271 22.8148 23.2254C22.574 23.3236 22.3158 23.374 22.0551 23.3739H2.28681C2.02631 23.3739 1.76837 23.3233 1.52771 23.2251C1.28705 23.1269 1.0684 22.983 0.884253 22.8016C0.700102 22.6201 0.55406 22.4047 0.454469 22.1677C0.354878 21.9306 0.303692 21.6766 0.303833 21.42V1.95279ZM9.69871 8.91183H12.9127V10.5013C13.3766 9.58755 14.5634 8.76521 16.3468 8.76521C19.7657 8.76521 20.576 10.5852 20.576 13.9245V20.11H17.116V14.6852C17.116 12.7834 16.6521 11.7103 15.474 11.7103C13.8395 11.7103 13.1598 12.8673 13.1598 14.6852V20.11H9.69871V8.91183ZM3.76488 19.9645H7.22592V8.76521H3.76488V19.9634V19.9645ZM7.72113 5.11251C7.72765 5.40434 7.67492 5.69451 7.56603 5.96599C7.45713 6.23748 7.29427 6.48481 7.087 6.69347C6.87972 6.90213 6.63221 7.06792 6.359 7.18111C6.08578 7.29429 5.79235 7.3526 5.49594 7.3526C5.19953 7.3526 4.9061 7.29429 4.63289 7.18111C4.35967 7.06792 4.11216 6.90213 3.90488 6.69347C3.69761 6.48481 3.53475 6.23748 3.42585 5.96599C3.31696 5.69451 3.26423 5.40434 3.27075 5.11251C3.28356 4.5397 3.52362 3.99459 3.93953 3.59394C4.35544 3.19328 4.91413 2.96893 5.49594 2.96893C6.07775 2.96893 6.63644 3.19328 7.05235 3.59394C7.46826 3.99459 7.70832 4.5397 7.72113 5.11251V5.11251Z" fill="#C6D5E9"/>
</svg>
