<svg width="30" height="32" viewBox="0 0 30 32" fill="none" xmlns="http://www.w3.org/2000/svg">
<path d="M26.158 19.5294C25.0269 18.8844 23.7509 18.6924 22.4858 18.6444C21.4337 18.6134 19.8547 17.9203 19.8547 15.9993C19.8547 14.5672 21.0107 13.4111 22.5018 13.3541C23.7669 13.3061 25.0429 13.1141 26.173 12.4631C27.7072 11.5772 28.8269 10.1183 29.286 8.40713C29.745 6.69598 29.5059 4.87257 28.6211 3.33767C27.7287 1.80176 26.2634 0.682575 24.5468 0.22568C22.8302 -0.231215 21.0025 0.0114943 19.4647 0.900555C18.4467 1.48451 17.6015 2.32759 17.015 3.34409C16.4285 4.36059 16.1216 5.51426 16.1255 6.68782C16.1255 7.98388 16.5895 9.17194 17.1775 10.287C17.6736 11.214 17.9126 12.9481 16.2295 13.9222C14.9644 14.6462 13.3864 14.1942 12.6053 12.9331C11.9443 11.8651 11.1463 10.87 10.0162 10.225C6.81907 8.3759 2.72487 9.47395 0.891789 12.6621C0.00759899 14.1975 -0.23079 16.0212 0.229012 17.7324C0.688815 19.4435 1.80919 20.9021 3.3439 21.7875C4.3599 22.3709 5.51101 22.6778 6.68256 22.6778C7.85411 22.6778 9.00521 22.3709 10.0212 21.7875C11.1463 21.1405 11.9443 20.1464 12.6053 19.0794C13.1464 18.2084 14.5164 17.0943 16.2295 18.0884C17.4966 18.8074 17.8866 20.4075 17.1775 21.7295C16.5945 22.8226 16.1255 24.0266 16.1255 25.3227C16.1255 29.0109 19.1166 31.995 22.8028 32C24.5735 31.9992 26.2714 31.2955 27.5235 30.0434C28.7756 28.7913 29.4793 27.0934 29.4801 25.3227C29.486 24.15 29.1817 22.9965 28.5981 21.9793C28.0145 20.9621 27.1723 20.1172 26.157 19.5304L26.158 19.5294Z" fill="#60AEF0"/>
</svg>
