<svg width="151" height="43" viewBox="0 0 151 43" fill="none" xmlns="http://www.w3.org/2000/svg">
<path d="M9.152 32H6.496V9.92H0.96V9.6H14.72V9.92H9.152V32ZM17.9275 9.856C20.4022 9.68533 22.5888 9.6 24.4875 9.6C29.7568 9.6 32.3915 11.36 32.3915 14.88C32.3915 16.3733 32.0288 17.7067 31.3035 18.88C30.5782 20.0533 29.3302 20.832 27.5595 21.216L33.9595 32H30.9835L24.7115 21.408H20.5835V32H17.9275V9.856ZM24.4875 9.92C23.2502 9.92 21.9488 9.99467 20.5835 10.144V21.088H25.3195C28.3275 20.96 29.8315 18.912 29.8315 14.944C29.8315 13.3227 29.3835 12.0853 28.4875 11.232C27.5915 10.3573 26.2582 9.92 24.4875 9.92ZM36.2503 32H35.8663L45.4343 9.6L45.7863 9.44L53.8503 32H51.1303L48.6343 24.96H39.2903L36.2503 32ZM44.4423 13.056L39.4183 24.64H48.5383L44.4423 13.056ZM69.476 9.6V9.92H59.396V20.16H68.74V20.48H59.396V32H56.74V9.6H69.476ZM85.5698 9.6V9.92H75.4898V20.16H84.8338V20.48H75.4898V32H72.8338V9.6H85.5698ZM88.9275 9.92V9.6H94.6235V9.92H93.0555V31.68H94.6235V32H88.9275V31.68H90.3995V9.92H88.9275ZM109.331 32.128C105.341 32.128 102.387 30.9973 100.467 28.736C99.7838 27.9253 99.2292 26.848 98.8025 25.504C98.3758 24.16 98.1625 22.528 98.1625 20.608C98.1625 18.688 98.4718 16.9707 99.0905 15.456C99.7305 13.92 100.595 12.736 101.683 11.904C103.795 10.3467 106.344 9.568 109.331 9.568C110.184 9.568 111.016 9.64267 111.827 9.792C112.637 9.92 113.245 10.0587 113.651 10.208L114.227 10.432L114.131 10.752C112.68 10.176 111.08 9.888 109.331 9.888C107.069 9.888 105.181 10.624 103.667 12.096C102.515 13.184 101.704 14.784 101.235 16.896C100.957 18.0907 100.819 19.552 100.819 21.28C100.819 23.008 101.064 24.608 101.555 26.08C102.045 27.5307 102.6 28.608 103.219 29.312C103.859 30.016 104.627 30.5813 105.523 31.008C106.419 31.4133 107.133 31.648 107.667 31.712C108.2 31.776 108.84 31.808 109.587 31.808C110.355 31.808 111.219 31.7333 112.179 31.584C113.139 31.4347 113.864 31.296 114.355 31.168L115.091 30.944L115.187 31.264C113.565 31.84 111.613 32.128 109.331 32.128Z" fill="#D1D7E2"/>
<path d="M146.797 0L149.803 3.0064L113.726 40.887L146.797 0Z" fill="#D1D7E2"/>
<path d="M119.856 3.18358L121.037 1.95585L147.724 31.9375L146.543 33.1652L119.856 3.18358Z" fill="#D1D7E2"/>
</svg>
